<svg xmlns="http://www.w3.org/2000/svg" viewBox="0 0 512 512">
  <rect width="512" height="512" rx="104" fill="#20282d"/>
  <circle cx="290" cy="252" r="152" fill="#f8fbfc" stroke="#d8e3e6" stroke-width="10"/>
  <path d="M222 150 Q190 252 222 354 Q259 252 222 150Z" fill="#ccebf5" stroke="#477589" stroke-width="9"/>
  <path d="M416 130 Q461 252 416 374" fill="none" stroke="#657176" stroke-width="10" stroke-linecap="round"/>
  <line x1="102" y1="330" x2="416" y2="330" stroke="#b9c5c9" stroke-width="6"/>
  <g stroke="#9ba9ad" stroke-width="4"><path d="M118 323v14"/><path d="M148 323v14"/><path d="M178 323v14"/><path d="M208 323v14"/><path d="M238 323v14"/><path d="M268 323v14"/><path d="M298 323v14"/><path d="M328 323v14"/><path d="M358 323v14"/></g>
  <line x1="330" y1="215" x2="411" y2="215" stroke="#0072b2" stroke-width="20" stroke-linecap="round"/>
  <line x1="375" y1="156" x2="375" y2="274" stroke="#009e73" stroke-width="20" stroke-linecap="round"/>
  <circle cx="352" cy="244" r="18" fill="#fff" stroke="#20282d" stroke-width="8"/>
</svg>
